<svg width="512" height="512" viewBox="0 0 32 32" fill="none" xmlns="http://www.w3.org/2000/svg">
<g>
<path id="p1" d="M6.74934 12.7107L3.91468 12.8907C3.21201 12.9347 2.66534 13.5174 2.66534 14.2214V17.684C2.66534 18.3707 3.18668 18.9454 3.87068 19.0107L6.74801 19.2894V12.7107H6.74934Z" fill="#AECBFA"/>
<path id="p2" d="M25.2507 19.2894L28.0853 19.1094C28.788 19.0654 29.3347 18.4827 29.3347 17.7787V14.316C29.3347 13.6294 28.8133 13.0547 28.1293 12.9894L25.252 12.7107V19.2894H25.2507Z" fill="#669DF6"/>
<path id="p3" d="M14.064 6.37467L12.452 4.036C12.052 3.45733 11.272 3.288 10.668 3.64933L7.69736 5.43067C7.10802 5.784 6.88402 6.52667 7.17869 7.14667L8.42002 9.75733L14.0627 6.37333L14.064 6.37467Z" fill="#AECBFA"/>
<path id="p4" d="M17.936 25.6253L19.548 27.964C19.948 28.5427 20.728 28.712 21.332 28.3507L24.3027 26.5693C24.892 26.216 25.116 25.4733 24.8213 24.8533L23.58 22.2427L17.9373 25.6267L17.936 25.6253Z" fill="#669DF6"/>
<path id="p5" d="M17.936 6.37467L19.548 4.036C19.948 3.45733 20.728 3.288 21.332 3.64933L24.3027 5.43067C24.892 5.784 25.116 6.52667 24.8213 7.14667L23.58 9.75733L17.9373 6.37333L17.936 6.37467Z" fill="#669DF6"/>
<path id="p6" d="M14.064 25.6253L12.452 27.964C12.052 28.5427 11.272 28.712 10.668 28.3507L7.69736 26.5693C7.10802 26.216 6.88402 25.4733 7.17869 24.8533L8.42002 22.2427L14.0627 25.6267L14.064 25.6253Z" fill="#AECBFA"/>
<path id="p7" d="M16.0027 23.9786C11.592 23.9786 8.00535 20.3906 8.00535 15.98C8.00535 11.5693 11.5934 7.98265 16.0027 7.98265V5.31598C10.1214 5.31598 5.33868 10.1 5.33868 15.98C5.33868 21.86 10.1227 26.644 16.0027 26.6453V23.9786V23.9786Z" fill="#AECBFA"/>
<path id="p8" d="M16.0027 5.31598V7.98265C20.412 7.98265 24 11.5706 24 15.98C24 20.3893 20.412 23.9786 16.0027 23.9786V26.6453C21.8827 26.6453 26.6667 21.8613 26.6667 15.98C26.6667 10.0986 21.8827 5.31598 16.0027 5.31598V5.31598Z" fill="#669DF6"/>
<path id="p9" d="M22.412 17.8573L22.3547 17.9027C20.9493 18.992 18.648 18.88 17.3 17.5947C16.312 16.6533 15.744 15.476 14.9293 14.616C12.9907 12.568 10.688 12.38 9.79199 14.032C8.82665 15.812 9.68532 18.076 9.68532 18.076C9.68532 18.076 10.0187 16.3747 11.3933 16.6227C12.768 16.8707 13.3413 17.964 14.1747 18.8267C15.008 19.6893 16.284 21.12 18.5973 21.12C20.9107 21.12 21.9507 19.436 22.412 17.856V17.8573Z" fill="#4285F4"/>
<path id="p10" d="M12.0307 10.676C12.0307 10.676 13.2867 9.33331 15.896 9.33331C17.7333 9.33331 19.5813 11.8386 20.2173 12.6813C20.8533 13.524 21.332 14.2573 22.4067 14.0706C22.4067 14.0706 22.6733 14.9013 22.6853 15.776C22.6853 15.776 21.1147 17.1066 19.48 15.5506C17.8453 13.9946 15.9213 8.92531 12.0307 10.6773V10.676Z" fill="#4285F4"/>
</g>
</svg>
